<?xml version="1.0" encoding="UTF-8"?><svg xmlns="http://www.w3.org/2000/svg" xmlns:xlink="http://www.w3.org/1999/xlink" width="375" zoomAndPan="magnify" viewBox="0 0 375 374.999991" height="374.999991" preserveAspectRatio="xMidYMid meet" version="1.0"><defs><clipPath id="clip-0"><path d="M 37.5 86.792969 L 174 86.792969 L 174 224 L 37.5 224 Z M 37.5 86.792969 " clip-rule="nonzero"/></clipPath><clipPath id="clip-1"><path d="M 65 185 L 146 185 L 146 236.792969 L 65 236.792969 Z M 65 185 " clip-rule="nonzero"/></clipPath><clipPath id="clip-2"><path d="M 200.863281 86.792969 L 337.363281 86.792969 L 337.363281 224 L 200.863281 224 Z M 200.863281 86.792969 " clip-rule="nonzero"/></clipPath><clipPath id="clip-3"><path d="M 229 185 L 309 185 L 309 236.792969 L 229 236.792969 Z M 229 185 " clip-rule="nonzero"/></clipPath><clipPath id="clip-4"><path d="M 119.183594 161.792969 L 255.683594 161.792969 L 255.683594 299 L 119.183594 299 Z M 119.183594 161.792969 " clip-rule="nonzero"/></clipPath><clipPath id="clip-5"><path d="M 147 260 L 228 260 L 228 311.792969 L 147 311.792969 Z M 147 260 " clip-rule="nonzero"/></clipPath></defs><g clip-path="url(#clip-0)"><path fill="rgb(100%, 72.158813%, 18.818665%)" d="M 174.007812 155.117188 C 174.007812 192.84375 143.460938 223.421875 105.773438 223.421875 C 68.082031 223.421875 37.535156 192.84375 37.535156 155.117188 C 37.53125 117.394531 68.082031 86.816406 105.773438 86.816406 C 143.460938 86.816406 174.007812 117.394531 174.007812 155.117188 " fill-opacity="1" fill-rule="nonzero"/></g><path fill="rgb(24.708557%, 14.118958%, 38.819885%)" d="M 135.96875 142.097656 C 135.96875 142.097656 132.507812 176.316406 144.238281 176.75 C 144.238281 176.75 133.492188 195.886719 106.421875 192.191406 L 106.421875 138.480469 L 135.96875 142.097656 " fill-opacity="1" fill-rule="nonzero"/><path fill="rgb(24.708557%, 14.118958%, 38.819885%)" d="M 77.757812 142.097656 C 77.757812 142.097656 81.222656 176.316406 69.492188 176.75 C 69.492188 176.75 80.234375 195.886719 107.304688 192.191406 L 107.304688 138.480469 L 77.757812 142.097656 " fill-opacity="1" fill-rule="nonzero"/><g clip-path="url(#clip-1)"><path fill="rgb(100%, 100%, 100%)" d="M 145.582031 223.609375 C 142.207031 226.128906 138.585938 228.339844 134.757812 230.1875 C 134.175781 230.472656 133.589844 230.742188 133 231.003906 C 124.683594 234.738281 115.472656 236.8125 105.773438 236.8125 C 96.070312 236.8125 86.859375 234.738281 78.546875 231.003906 C 77.949219 230.742188 77.363281 230.472656 76.785156 230.1875 C 72.957031 228.335938 69.335938 226.128906 65.964844 223.609375 C 66.554688 210.402344 73.5625 198.871094 83.941406 192.058594 C 90.210938 187.941406 97.710938 185.550781 105.773438 185.550781 C 107 185.550781 108.21875 185.605469 109.414062 185.714844 C 116.089844 186.320312 122.285156 188.566406 127.601562 192.058594 C 132.378906 195.195312 136.441406 199.332031 139.492188 204.167969 C 143.074219 209.84375 145.257812 216.484375 145.582031 223.609375 " fill-opacity="1" fill-rule="nonzero"/></g><path fill="rgb(96.859741%, 60.778809%, 40.779114%)" d="M 127.601562 192.058594 C 126.992188 196.664062 124.964844 200.828125 121.960938 204.082031 C 117.9375 208.441406 112.175781 211.179688 105.773438 211.179688 C 95.511719 211.179688 86.894531 204.15625 84.445312 194.648438 C 84.230469 193.804688 84.058594 192.9375 83.941406 192.058594 C 90.210938 187.941406 97.710938 185.550781 105.773438 185.550781 C 107 185.550781 108.21875 185.601562 109.417969 185.714844 C 109.625 185.730469 109.835938 185.753906 110.039062 185.773438 C 110.167969 185.789062 110.300781 185.800781 110.425781 185.820312 C 110.570312 185.832031 110.710938 185.851562 110.851562 185.871094 C 110.9375 185.878906 111.027344 185.894531 111.117188 185.90625 C 111.242188 185.917969 111.371094 185.941406 111.503906 185.957031 C 111.601562 185.972656 111.703125 185.988281 111.808594 186 C 111.894531 186.015625 111.980469 186.027344 112.066406 186.042969 C 112.214844 186.066406 112.359375 186.09375 112.507812 186.113281 C 113.140625 186.222656 113.769531 186.34375 114.390625 186.484375 L 114.808594 186.574219 C 114.886719 186.597656 114.96875 186.613281 115.046875 186.636719 C 115.195312 186.671875 115.347656 186.707031 115.492188 186.746094 C 115.515625 186.75 115.539062 186.753906 115.554688 186.757812 C 115.742188 186.804688 115.929688 186.855469 116.113281 186.90625 C 116.3125 186.953125 116.507812 187.011719 116.699219 187.066406 C 116.921875 187.128906 117.136719 187.191406 117.359375 187.257812 C 117.527344 187.308594 117.699219 187.363281 117.867188 187.417969 C 117.976562 187.453125 118.089844 187.488281 118.195312 187.523438 C 118.371094 187.578125 118.550781 187.640625 118.722656 187.703125 C 118.941406 187.777344 119.152344 187.851562 119.367188 187.929688 C 119.382812 187.9375 119.398438 187.941406 119.410156 187.945312 C 119.632812 188.023438 119.847656 188.105469 120.066406 188.1875 C 120.226562 188.253906 120.394531 188.316406 120.558594 188.382812 C 120.988281 188.554688 121.410156 188.734375 121.828125 188.914062 L 122.375 189.164062 C 122.539062 189.238281 122.703125 189.316406 122.871094 189.394531 C 123.019531 189.46875 123.167969 189.539062 123.316406 189.609375 C 123.457031 189.675781 123.589844 189.746094 123.726562 189.816406 C 123.8125 189.859375 123.902344 189.902344 123.992188 189.949219 C 124.351562 190.132812 124.703125 190.324219 125.050781 190.515625 C 125.175781 190.585938 125.308594 190.660156 125.429688 190.730469 C 125.511719 190.777344 125.589844 190.820312 125.667969 190.863281 L 125.960938 191.039062 L 126.261719 191.21875 L 126.457031 191.335938 C 126.644531 191.445312 126.828125 191.558594 127.011719 191.675781 C 127.210938 191.804688 127.40625 191.929688 127.601562 192.058594 " fill-opacity="1" fill-rule="nonzero"/><path fill="rgb(96.859741%, 60.778809%, 40.779114%)" d="M 113.445312 176.613281 L 113.445312 191.71875 C 113.445312 195.542969 110.320312 198.675781 106.507812 198.675781 L 105.039062 198.675781 C 101.222656 198.675781 98.101562 195.542969 98.101562 191.71875 L 98.101562 176.613281 C 98.101562 172.789062 101.222656 169.660156 105.039062 169.660156 L 106.507812 169.660156 C 110.320312 169.660156 113.445312 172.789062 113.445312 176.613281 " fill-opacity="1" fill-rule="nonzero"/><path fill="rgb(95.689392%, 44.309998%, 42.749023%)" d="M 113.445312 176.613281 L 113.445312 184.605469 C 111.164062 185.875 108.742188 186.613281 106.289062 186.613281 C 103.390625 186.613281 100.628906 185.804688 98.101562 184.402344 L 98.101562 176.613281 C 98.101562 172.789062 101.222656 169.660156 105.039062 169.660156 L 106.507812 169.660156 C 110.320312 169.660156 113.445312 172.789062 113.445312 176.613281 " fill-opacity="1" fill-rule="nonzero"/><path fill="rgb(96.859741%, 60.778809%, 40.779114%)" d="M 129.429688 167.242188 C 129.429688 167.242188 133.976562 165.695312 136.878906 160.625 C 140.03125 155.117188 138.050781 151.6875 137.425781 150.945312 C 135.71875 148.914062 133.078125 150.21875 132.644531 150.945312 C 132.210938 151.667969 125.917969 163.109375 129.429688 167.242188 " fill-opacity="1" fill-rule="nonzero"/><path fill="rgb(95.689392%, 44.309998%, 42.749023%)" d="M 133.882812 152.75 C 133.882812 152.75 136.769531 153.117188 135.757812 157.175781 C 134.738281 161.238281 132.078125 162.84375 128.453125 164.917969 C 124.832031 166.992188 130.265625 153.574219 133.882812 152.75 " fill-opacity="1" fill-rule="nonzero"/><path fill="rgb(96.859741%, 60.778809%, 40.779114%)" d="M 83.296875 167.242188 C 83.296875 167.242188 78.75 165.695312 75.847656 160.625 C 72.6875 155.117188 74.671875 151.6875 75.296875 150.945312 C 77.003906 148.914062 79.640625 150.21875 80.074219 150.945312 C 80.511719 151.667969 86.804688 163.109375 83.296875 167.242188 " fill-opacity="1" fill-rule="nonzero"/><path fill="rgb(95.689392%, 44.309998%, 42.749023%)" d="M 78.835938 152.75 C 78.835938 152.75 75.957031 153.117188 76.96875 157.175781 C 77.980469 161.238281 80.648438 162.84375 84.269531 164.917969 C 87.890625 166.992188 82.460938 153.574219 78.835938 152.75 " fill-opacity="1" fill-rule="nonzero"/><path fill="rgb(96.859741%, 60.778809%, 40.779114%)" d="M 133.882812 150.070312 C 133.882812 133.398438 121.59375 119.882812 106.421875 119.882812 C 91.257812 119.882812 78.957031 133.398438 78.957031 150.070312 C 78.957031 166.738281 91.257812 184.167969 106.421875 184.167969 C 120.675781 184.167969 133.882812 166.601562 133.882812 150.070312 " fill-opacity="1" fill-rule="nonzero"/><path fill="rgb(24.708557%, 14.118958%, 38.819885%)" d="M 108.894531 137.894531 C 108.894531 137.894531 114.0625 154.53125 133.492188 152.882812 C 133.492188 152.882812 136.886719 147.972656 135.738281 137.296875 C 134.445312 125.261719 123.792969 115.136719 106.421875 118.761719 C 106.421875 118.761719 104.835938 127.316406 108.894531 137.894531 " fill-opacity="1" fill-rule="nonzero"/><path fill="rgb(24.708557%, 14.118958%, 38.819885%)" d="M 109.765625 119.882812 C 109.765625 119.882812 110.484375 116.734375 107.878906 114.265625 C 105.273438 111.800781 70.75 116.863281 78.957031 150.070312 C 78.957031 150.070312 87.003906 130.210938 108.3125 128.472656 L 109.765625 119.882812 " fill-opacity="1" fill-rule="nonzero"/><g clip-path="url(#clip-2)"><path fill="rgb(100%, 72.158813%, 18.818665%)" d="M 337.375 155.117188 C 337.375 192.84375 306.824219 223.421875 269.136719 223.421875 C 231.445312 223.421875 200.898438 192.84375 200.898438 155.117188 C 200.894531 117.394531 231.445312 86.816406 269.136719 86.816406 C 306.824219 86.816406 337.375 117.394531 337.375 155.117188 " fill-opacity="1" fill-rule="nonzero"/></g><g clip-path="url(#clip-3)"><path fill="rgb(100%, 100%, 100%)" d="M 308.949219 223.609375 C 305.574219 226.128906 301.949219 228.339844 298.121094 230.1875 C 297.539062 230.472656 296.957031 230.742188 296.367188 231.003906 C 288.054688 234.738281 278.835938 236.8125 269.136719 236.8125 C 259.433594 236.8125 250.222656 234.738281 241.910156 231.003906 C 241.3125 230.742188 240.726562 230.472656 240.148438 230.1875 C 236.320312 228.335938 232.699219 226.128906 229.328125 223.609375 C 229.917969 210.402344 236.925781 198.871094 247.304688 192.058594 C 253.574219 187.941406 261.074219 185.550781 269.136719 185.550781 C 270.363281 185.550781 271.582031 185.605469 272.777344 185.714844 C 279.453125 186.320312 285.652344 188.566406 290.964844 192.058594 C 295.742188 195.195312 299.804688 199.332031 302.855469 204.167969 C 306.4375 209.84375 308.621094 216.484375 308.949219 223.609375 " fill-opacity="1" fill-rule="nonzero"/></g><path fill="rgb(96.859741%, 60.778809%, 40.779114%)" d="M 290.964844 192.058594 C 290.355469 196.664062 288.328125 200.828125 285.324219 204.082031 C 281.300781 208.441406 275.539062 211.179688 269.136719 211.179688 C 258.875 211.179688 250.257812 204.15625 247.808594 194.648438 C 247.59375 193.804688 247.421875 192.9375 247.304688 192.058594 C 253.574219 187.941406 261.074219 185.550781 269.136719 185.550781 C 270.363281 185.550781 271.582031 185.601562 272.78125 185.714844 C 272.988281 185.730469 273.199219 185.753906 273.402344 185.773438 C 273.53125 185.789062 273.664062 185.800781 273.789062 185.820312 C 273.933594 185.832031 274.074219 185.851562 274.214844 185.871094 C 274.300781 185.878906 274.394531 185.894531 274.480469 185.90625 C 274.605469 185.917969 274.734375 185.941406 274.867188 185.957031 C 274.964844 185.972656 275.066406 185.988281 275.171875 186 C 275.257812 186.015625 275.34375 186.027344 275.429688 186.042969 C 275.578125 186.066406 275.722656 186.09375 275.871094 186.113281 C 276.503906 186.222656 277.132812 186.34375 277.753906 186.484375 L 278.171875 186.574219 C 278.25 186.597656 278.332031 186.613281 278.410156 186.636719 C 278.558594 186.671875 278.710938 186.707031 278.855469 186.746094 C 278.882812 186.75 278.902344 186.753906 278.921875 186.757812 C 279.105469 186.804688 279.292969 186.855469 279.476562 186.90625 C 279.675781 186.953125 279.871094 187.011719 280.0625 187.066406 C 280.285156 187.128906 280.5 187.191406 280.722656 187.257812 C 280.894531 187.308594 281.0625 187.363281 281.230469 187.417969 C 281.339844 187.453125 281.453125 187.488281 281.558594 187.523438 C 281.734375 187.578125 281.914062 187.640625 282.085938 187.703125 C 282.304688 187.777344 282.519531 187.851562 282.730469 187.929688 C 282.75 187.9375 282.761719 187.941406 282.773438 187.945312 C 282.996094 188.023438 283.214844 188.105469 283.429688 188.1875 C 283.589844 188.253906 283.757812 188.316406 283.921875 188.382812 C 284.351562 188.554688 284.773438 188.734375 285.191406 188.914062 L 285.738281 189.164062 C 285.902344 189.238281 286.066406 189.316406 286.234375 189.394531 C 286.386719 189.46875 286.53125 189.539062 286.679688 189.609375 C 286.820312 189.675781 286.953125 189.746094 287.089844 189.816406 C 287.175781 189.859375 287.265625 189.902344 287.355469 189.949219 C 287.714844 190.132812 288.066406 190.324219 288.414062 190.515625 C 288.539062 190.585938 288.671875 190.660156 288.792969 190.730469 C 288.875 190.777344 288.953125 190.820312 289.03125 190.863281 L 289.328125 191.039062 L 289.625 191.21875 L 289.820312 191.335938 C 290.007812 191.445312 290.191406 191.558594 290.375 191.675781 C 290.574219 191.804688 290.769531 191.929688 290.964844 192.058594 " fill-opacity="1" fill-rule="nonzero"/><path fill="rgb(96.859741%, 60.778809%, 40.779114%)" d="M 278.835938 174.609375 L 278.835938 193.714844 C 278.835938 198.546875 274.886719 202.507812 270.0625 202.507812 L 268.210938 202.507812 C 263.382812 202.507812 259.4375 198.546875 259.4375 193.714844 L 259.4375 174.609375 C 259.4375 169.777344 263.382812 165.832031 268.210938 165.832031 L 270.0625 165.832031 C 274.886719 165.832031 278.835938 169.777344 278.835938 174.609375 " fill-opacity="1" fill-rule="nonzero"/><path fill="rgb(95.689392%, 44.309998%, 42.749023%)" d="M 278.835938 174.609375 L 278.835938 184.722656 C 275.953125 186.328125 272.894531 187.257812 269.785156 187.257812 C 266.125 187.257812 262.632812 186.242188 259.4375 184.460938 L 259.4375 174.609375 C 259.4375 169.777344 263.382812 165.832031 268.210938 165.832031 L 270.0625 165.832031 C 274.886719 165.832031 278.835938 169.777344 278.835938 174.609375 " fill-opacity="1" fill-rule="nonzero"/><path fill="rgb(96.859741%, 60.778809%, 40.779114%)" d="M 292.792969 167.242188 C 292.792969 167.242188 297.339844 165.695312 300.242188 160.625 C 303.394531 155.117188 301.414062 151.6875 300.789062 150.945312 C 299.082031 148.914062 296.445312 150.21875 296.007812 150.945312 C 295.574219 151.667969 289.28125 163.109375 292.792969 167.242188 " fill-opacity="1" fill-rule="nonzero"/><path fill="rgb(95.689392%, 44.309998%, 42.749023%)" d="M 297.246094 152.75 C 297.246094 152.75 300.132812 153.117188 299.121094 157.175781 C 298.101562 161.238281 295.441406 162.84375 291.816406 164.917969 C 288.195312 166.992188 293.628906 153.574219 297.246094 152.75 " fill-opacity="1" fill-rule="nonzero"/><path fill="rgb(96.859741%, 60.778809%, 40.779114%)" d="M 246.660156 167.242188 C 246.660156 167.242188 242.113281 165.695312 239.210938 160.625 C 236.050781 155.117188 238.035156 151.6875 238.660156 150.945312 C 240.367188 148.914062 243.003906 150.21875 243.4375 150.945312 C 243.875 151.667969 250.167969 163.109375 246.660156 167.242188 " fill-opacity="1" fill-rule="nonzero"/><path fill="rgb(95.689392%, 44.309998%, 42.749023%)" d="M 242.199219 152.75 C 242.199219 152.75 239.320312 153.117188 240.332031 157.175781 C 241.34375 161.238281 244.011719 162.84375 247.632812 164.917969 C 251.253906 166.992188 245.824219 153.574219 242.199219 152.75 " fill-opacity="1" fill-rule="nonzero"/><path fill="rgb(24.708557%, 14.118958%, 38.819885%)" d="M 272.257812 137.894531 C 272.257812 137.894531 277.425781 154.53125 296.855469 152.882812 C 296.855469 152.882812 300.25 147.972656 299.101562 137.296875 C 297.808594 125.261719 287.160156 115.136719 269.785156 118.761719 C 269.785156 118.761719 268.203125 127.316406 272.257812 137.894531 " fill-opacity="1" fill-rule="nonzero"/><path fill="rgb(24.708557%, 14.118958%, 38.819885%)" d="M 273.128906 119.882812 C 273.128906 119.882812 273.851562 116.734375 271.242188 114.265625 C 268.636719 111.800781 234.117188 116.863281 242.324219 150.070312 C 242.324219 150.070312 250.371094 130.210938 271.675781 128.472656 L 273.128906 119.882812 " fill-opacity="1" fill-rule="nonzero"/><path fill="rgb(96.859741%, 60.778809%, 40.779114%)" d="M 297.246094 150.070312 C 297.246094 133.398438 284.957031 119.882812 269.785156 119.882812 C 254.625 119.882812 242.324219 133.398438 242.324219 150.070312 C 242.324219 166.738281 254.625 184.167969 269.785156 184.167969 C 284.039062 184.167969 297.246094 166.601562 297.246094 150.070312 " fill-opacity="1" fill-rule="nonzero"/><path fill="rgb(24.708557%, 14.118958%, 38.819885%)" d="M 241.066406 131.15625 C 241.066406 131.15625 238.019531 142.050781 240.628906 152.75 C 240.628906 152.75 260.3125 154.746094 268.175781 152.027344 C 268.175781 152.027344 272.347656 143.875 272.347656 133.328125 C 272.347656 133.328125 273.542969 146.144531 271.261719 152.027344 C 271.261719 152.027344 273.542969 152.574219 274.410156 151.378906 C 275.277344 150.183594 281.578125 139.851562 279.625 126.589844 C 279.625 126.589844 289.726562 142.125 289.292969 152.027344 C 289.292969 152.027344 292.660156 151.050781 293.3125 145.941406 C 293.3125 145.941406 295.128906 150.464844 294.980469 152.75 C 294.980469 152.75 295.828125 153.578125 298.851562 152.027344 C 298.851562 152.027344 303.75 120.609375 273.21875 118.976562 C 273.21875 118.976562 246.070312 112.78125 241.066406 131.15625 " fill-opacity="1" fill-rule="nonzero"/><g clip-path="url(#clip-4)"><path fill="rgb(100%, 14.118958%, 25.878906%)" d="M 255.691406 230.117188 C 255.691406 267.84375 225.140625 298.421875 187.453125 298.421875 C 149.765625 298.421875 119.214844 267.84375 119.214844 230.117188 C 119.214844 192.394531 149.765625 161.816406 187.453125 161.816406 C 225.140625 161.816406 255.691406 192.394531 255.691406 230.117188 " fill-opacity="1" fill-rule="nonzero"/></g><g clip-path="url(#clip-5)"><path fill="rgb(100%, 100%, 100%)" d="M 227.296875 298.609375 C 223.925781 301.128906 220.300781 303.339844 216.472656 305.1875 C 215.890625 305.472656 215.308594 305.742188 214.71875 306.003906 C 206.402344 309.738281 197.191406 311.8125 187.488281 311.8125 C 177.789062 311.8125 168.574219 309.738281 160.261719 306.003906 C 159.671875 305.742188 159.082031 305.472656 158.503906 305.1875 C 154.675781 303.335938 151.050781 301.128906 147.679688 298.609375 C 148.269531 285.402344 155.277344 273.871094 165.660156 267.058594 C 171.929688 262.941406 179.429688 260.550781 187.488281 260.550781 C 188.71875 260.550781 189.933594 260.605469 191.132812 260.714844 C 197.808594 261.320312 204.003906 263.566406 209.316406 267.058594 C 214.097656 270.195312 218.160156 274.332031 221.210938 279.167969 C 224.789062 284.84375 226.980469 291.484375 227.296875 298.609375 " fill-opacity="1" fill-rule="nonzero"/></g><path fill="rgb(72.938538%, 36.079407%, 12.939453%)" d="M 209.316406 267.058594 C 208.710938 271.664062 206.679688 275.828125 203.675781 279.082031 C 199.652344 283.441406 193.894531 286.179688 187.488281 286.179688 C 177.230469 286.179688 168.609375 279.15625 166.164062 269.648438 C 165.945312 268.804688 165.777344 267.9375 165.660156 267.058594 C 171.929688 262.941406 179.429688 260.550781 187.488281 260.550781 C 188.71875 260.550781 189.933594 260.601562 191.132812 260.714844 C 191.34375 260.730469 191.550781 260.753906 191.753906 260.773438 C 191.886719 260.789062 192.015625 260.800781 192.140625 260.820312 C 192.285156 260.832031 192.429688 260.851562 192.566406 260.871094 C 192.65625 260.878906 192.746094 260.894531 192.832031 260.90625 C 192.957031 260.917969 193.089844 260.941406 193.21875 260.957031 C 193.320312 260.972656 193.417969 260.988281 193.523438 261 C 193.609375 261.015625 193.699219 261.027344 193.785156 261.042969 C 193.933594 261.066406 194.074219 261.09375 194.222656 261.113281 C 194.855469 261.222656 195.488281 261.34375 196.109375 261.484375 L 196.527344 261.574219 C 196.605469 261.597656 196.6875 261.613281 196.765625 261.636719 C 196.914062 261.671875 197.066406 261.707031 197.207031 261.746094 C 197.234375 261.75 197.253906 261.753906 197.273438 261.757812 C 197.460938 261.804688 197.648438 261.855469 197.828125 261.90625 C 198.027344 261.953125 198.226562 262.011719 198.414062 262.066406 C 198.636719 262.128906 198.855469 262.191406 199.078125 262.257812 C 199.246094 262.308594 199.414062 262.363281 199.585938 262.417969 C 199.695312 262.453125 199.804688 262.488281 199.910156 262.523438 C 200.089844 262.578125 200.265625 262.640625 200.441406 262.703125 C 200.65625 262.777344 200.871094 262.851562 201.082031 262.929688 C 201.101562 262.9375 201.113281 262.941406 201.128906 262.945312 C 201.347656 263.023438 201.566406 263.105469 201.785156 263.1875 C 201.945312 263.253906 202.109375 263.316406 202.273438 263.382812 C 202.703125 263.554688 203.125 263.734375 203.542969 263.914062 L 204.089844 264.164062 C 204.253906 264.238281 204.421875 264.316406 204.585938 264.394531 C 204.738281 264.46875 204.886719 264.539062 205.035156 264.609375 C 205.171875 264.675781 205.308594 264.746094 205.441406 264.816406 C 205.527344 264.859375 205.621094 264.902344 205.707031 264.949219 C 206.066406 265.132812 206.417969 265.324219 206.765625 265.515625 C 206.894531 265.585938 207.023438 265.660156 207.144531 265.730469 C 207.226562 265.777344 207.304688 265.820312 207.382812 265.863281 L 207.679688 266.039062 L 207.980469 266.21875 L 208.175781 266.335938 C 208.363281 266.445312 208.542969 266.558594 208.726562 266.675781 C 208.925781 266.804688 209.121094 266.929688 209.316406 267.058594 " fill-opacity="1" fill-rule="nonzero"/><path fill="rgb(72.938538%, 36.079407%, 12.939453%)" d="M 195.160156 251.613281 L 195.160156 266.71875 C 195.160156 270.542969 192.039062 273.675781 188.21875 273.675781 L 186.757812 273.675781 C 182.9375 273.675781 179.820312 270.542969 179.820312 266.71875 L 179.820312 251.613281 C 179.820312 247.789062 182.9375 244.660156 186.757812 244.660156 L 188.21875 244.660156 C 192.039062 244.660156 195.160156 247.789062 195.160156 251.613281 " fill-opacity="1" fill-rule="nonzero"/><path fill="rgb(61.959839%, 22.349548%, 16.859436%)" d="M 195.160156 251.613281 L 195.160156 259.605469 C 192.878906 260.875 190.460938 261.613281 188.003906 261.613281 C 185.105469 261.613281 182.34375 260.804688 179.820312 259.402344 L 179.820312 251.613281 C 179.820312 247.789062 182.9375 244.660156 186.757812 244.660156 L 188.21875 244.660156 C 192.039062 244.660156 195.160156 247.789062 195.160156 251.613281 " fill-opacity="1" fill-rule="nonzero"/><path fill="rgb(72.938538%, 36.079407%, 12.939453%)" d="M 211.148438 242.242188 C 211.148438 242.242188 215.691406 240.695312 218.59375 235.625 C 221.753906 230.117188 219.773438 226.6875 219.144531 225.945312 C 217.4375 223.914062 214.800781 225.21875 214.367188 225.945312 C 213.933594 226.667969 207.636719 238.109375 211.148438 242.242188 " fill-opacity="1" fill-rule="nonzero"/><path fill="rgb(61.959839%, 22.349548%, 16.859436%)" d="M 215.605469 227.75 C 215.605469 227.75 218.484375 228.117188 217.46875 232.175781 C 216.457031 236.238281 213.792969 237.84375 210.171875 239.917969 C 206.550781 241.992188 211.980469 228.574219 215.605469 227.75 " fill-opacity="1" fill-rule="nonzero"/><path fill="rgb(72.938538%, 36.079407%, 12.939453%)" d="M 165.011719 242.242188 C 165.011719 242.242188 160.46875 240.695312 157.558594 235.625 C 154.40625 230.117188 156.386719 226.6875 157.011719 225.945312 C 158.722656 223.914062 161.359375 225.21875 161.792969 225.945312 C 162.226562 226.667969 168.523438 238.109375 165.011719 242.242188 " fill-opacity="1" fill-rule="nonzero"/><path fill="rgb(61.959839%, 22.349548%, 16.859436%)" d="M 160.558594 227.75 C 160.558594 227.75 157.671875 228.117188 158.683594 232.175781 C 159.703125 236.238281 162.367188 237.84375 165.988281 239.917969 C 169.609375 241.992188 164.175781 228.574219 160.558594 227.75 " fill-opacity="1" fill-rule="nonzero"/><path fill="rgb(72.938538%, 36.079407%, 12.939453%)" d="M 215.605469 225.070312 C 215.605469 208.398438 203.308594 194.882812 188.140625 194.882812 C 172.976562 194.882812 160.679688 208.398438 160.679688 225.070312 C 160.679688 241.738281 172.976562 259.167969 188.140625 259.167969 C 202.390625 259.167969 215.605469 241.601562 215.605469 225.070312 " fill-opacity="1" fill-rule="nonzero"/><path fill="rgb(20.779419%, 12.159729%, 8.628845%)" d="M 191.480469 194.882812 C 191.480469 194.882812 192.207031 191.734375 189.601562 189.265625 C 186.992188 186.800781 152.472656 191.863281 160.679688 225.070312 C 160.679688 225.070312 168.722656 205.210938 190.035156 203.472656 L 191.480469 194.882812 " fill-opacity="1" fill-rule="nonzero"/><path fill="rgb(20.779419%, 12.159729%, 8.628845%)" d="M 184.710938 194.882812 C 184.710938 194.882812 183.992188 191.734375 186.597656 189.265625 C 189.203125 186.800781 223.726562 191.863281 215.511719 225.070312 C 215.511719 225.070312 207.472656 205.210938 186.164062 203.472656 L 184.710938 194.882812 " fill-opacity="1" fill-rule="nonzero"/><path fill="rgb(20.779419%, 12.159729%, 8.628845%)" d="M 238.554688 197.0625 C 238.554688 206.128906 231.210938 213.480469 222.152344 213.480469 C 213.09375 213.480469 205.75 206.128906 205.75 197.0625 C 205.75 187.992188 213.09375 180.644531 222.152344 180.644531 C 231.210938 180.644531 238.554688 187.992188 238.554688 197.0625 " fill-opacity="1" fill-rule="nonzero"/><path fill="rgb(20.779419%, 12.159729%, 8.628845%)" d="M 201.933594 202.535156 C 201.933594 210.164062 195.761719 216.34375 188.140625 216.34375 C 180.523438 216.34375 174.34375 210.164062 174.34375 202.535156 C 174.34375 194.914062 180.523438 188.726562 188.140625 188.726562 C 195.761719 188.726562 201.933594 194.914062 201.933594 202.535156 " fill-opacity="1" fill-rule="nonzero"/><path fill="rgb(20.779419%, 12.159729%, 8.628845%)" d="M 168.722656 197.0625 C 168.722656 206.128906 161.378906 213.480469 152.320312 213.480469 C 143.261719 213.480469 135.917969 206.128906 135.917969 197.0625 C 135.917969 187.992188 143.261719 180.644531 152.320312 180.644531 C 161.378906 180.644531 168.722656 187.992188 168.722656 197.0625 " fill-opacity="1" fill-rule="nonzero"/></svg>